{"extensionsUsed" : ["KHR_texture_transform"], "accessors" : [{"bufferView" : 0, "byteOffset" : 0, "componentType" : 5123, "count" : 432, "type" : "SCALAR", "max" : [325], "min" : [0]}, {"bufferView" : 1, "byteOffset" : 0, "componentType" : 5126, "count" : 326, "type" : "VEC3", "max" : [64.96063232421875, 64.96063232421875, 9.842519760131836], "min" : [-64.96063232421875, -64.96063232421875, 0], "name" : "POSITION"}, {"bufferView" : 1, "byteOffset" : 12, "componentType" : 5126, "count" : 326, "type" : "VEC2", "max" : [0.9999999403953552, 1], "min" : [-5.960464477539063E-08, 0], "name" : "TEXCOORD_0"}, {"bufferView" : 1, "byteOffset" : 20, "componentType" : 5126, "count" : 326, "type" : "VEC3", "max" : [1.0000044107437134, 1.0000044107437134, 1.0000044107437134], "min" : [-1.0000044107437134, -1.0000044107437134, -1.0000044107437134], "name" : "NORMAL"}, {"bufferView" : 1, "byteOffset" : 32, "componentType" : 5126, "count" : 326, "type" : "VEC4", "max" : [1.0000044107437134, 1.0000044107437134, 0, 0], "min" : [-1.0000044107437134, -1.0000044107437134, 0, 0], "name" : "TANGENT"}, {"bufferView" : 0, "byteOffset" : 864, "componentType" : 5123, "count" : 744, "type" : "SCALAR", "max" : [653], "min" : [0]}, {"bufferView" : 2, "byteOffset" : 0, "componentType" : 5126, "count" : 654, "type" : "VEC3", "max" : [51.18110275268555, 51.18110275268555, 9.84252643585205], "min" : [-51.18110275268555, -8.887483596801758, 0], "name" : "POSITION"}, {"bufferView" : 2, "byteOffset" : 12, "componentType" : 5126, "count" : 654, "type" : "VEC2", "max" : [0.9999999403953552, 1], "min" : [-5.960464477539063E-08, 0], "name" : "TEXCOORD_0"}, {"bufferView" : 2, "byteOffset" : 20, "componentType" : 5126, "count" : 654, "type" : "VEC3", "max" : [0.9961990714073181, 1.0000044107437134, 0.9989311099052429], "min" : [-1.0000044107437134, -1.0000044107437134, -1.0000044107437134], "name" : "NORMAL"}, {"bufferView" : 2, "byteOffset" : 32, "componentType" : 5126, "count" : 654, "type" : "VEC4", "max" : [0.9853511452674866, 1, 1.0000044107437134, 0], "min" : [-1.0000044107437134, -1.0000044107437134, -0.9965601563453674, 0], "name" : "TANGENT"}, {"bufferView" : 0, "byteOffset" : 2352, "componentType" : 5123, "count" : 132, "type" : "SCALAR", "max" : [116], "min" : [0]}, {"bufferView" : 3, "byteOffset" : 0, "componentType" : 5126, "count" : 117, "type" : "VEC3", "max" : [-5.663249339704635E-06, 1.1656019296424347E-06, 9.842525482177734], "min" : [-50.4035530090332, -25.590530395507812, 0], "name" : "POSITION"}, {"bufferView" : 3, "byteOffset" : 12, "componentType" : 5126, "count" : 117, "type" : "VEC2", "max" : [0.4999999701976776, 1], "min" : [0.27777770161628723, 0], "name" : "TEXCOORD_0"}, {"bufferView" : 3, "byteOffset" : 20, "componentType" : 5126, "count" : 117, "type" : "VEC3", "max" : [0.500001847743988, 0.9848122000694275, 0.9989217519760132], "min" : [-0.9659301042556763, -0.8660293221473694, -1.0000044107437134], "name" : "NORMAL"}, {"bufferView" : 3, "byteOffset" : 32, "componentType" : 5126, "count" : 117, "type" : "VEC4", "max" : [0.9848122000694275, 1, 0.08162927627563477, 0], "min" : [0, -0.9783629775047302, -0.08162922412157059, 0], "name" : "TANGENT"}, {"bufferView" : 0, "byteOffset" : 2616, "componentType" : 5123, "count" : 600, "type" : "SCALAR", "max" : [514], "min" : [0]}, {"bufferView" : 4, "byteOffset" : 0, "componentType" : 5126, "count" : 515, "type" : "VEC3", "max" : [51.18110275268555, 1.1656019296424347E-06, 9.84252643585205], "min" : [-44.32414627075195, -51.18110275268555, 0], "name" : "POSITION"}, {"bufferView" : 4, "byteOffset" : 12, "componentType" : 5126, "count" : 515, "type" : "VEC2", "max" : [0.75, 1], "min" : [0.33333325386047363, 0], "name" : "TEXCOORD_0"}, {"bufferView" : 4, "byteOffset" : 20, "componentType" : 5126, "count" : 515, "type" : "VEC3", "max" : [0.9848120212554932, 0.9659301042556763, 0.9955305457115173], "min" : [-0.9763001799583435, -1.0000044107437134, -1.0000044107437134], "name" : "NORMAL"}, {"bufferView" : 4, "byteOffset" : 32, "componentType" : 5126, "count" : 515, "type" : "VEC4", "max" : [1.0000044107437134, 1, 0.4118320345878601, 0], "min" : [-0.675592839717865, -0.9763001799583435, -0.41183391213417053, 0], "name" : "TANGENT"}], "asset" : {"generator" : "Aspose.3D 22.6", "version" : "2.0"}, "buffers" : [{"uri" : "data:application/octet-stream;base64,", "byteLength" : 95420}], "bufferViews" : [{"buffer" : 0, "byteOffset" : 0, "byteLength" : 3816, "target" : 34963}, {"buffer" : 0, "byteOffset" : 3820, "byteLength" : 20736, "byteStride" : 48, "target" : 34962}, {"buffer" : 0, "byteOffset" : 24560, "byteLength" : 35712, "byteStride" : 48, "target" : 34962}, {"buffer" : 0, "byteOffset" : 60276, "byteLength" : 6336, "byteStride" : 48, "target" : 34962}, {"buffer" : 0, "byteOffset" : 66616, "byteLength" : 28800, "byteStride" : 48, "target" : 34962}], "materials" : [{"name" : "01 - Default", "pbrMetallicRoughness" : {"baseColorFactor" : [1, 1, 1, 1], "metallicFactor" : 0.30000001192092896, "roughnessFactor" : 0.699999988079071}, "emissiveFactor" : [0, 0, 0], "alphaMode" : "OPAQUE", "doubleSided" : false}, {"name" : "04 - Default", "pbrMetallicRoughness" : {"baseColorFactor" : [0.3662526309490204, 0.19120168685913086, 0.5840784311294556, 1], "metallicFactor" : 0, "roughnessFactor" : 0.30000001192092896}, "emissiveFactor" : [0, 0, 0], "alphaMode" : "OPAQUE", "doubleSided" : false}, {"name" : "02 - Default", "pbrMetallicRoughness" : {"baseColorFactor" : [0.03954622894525528, 0.3662526309490204, 0.3762621581554413, 1], "metallicFactor" : 0, "roughnessFactor" : 0.30000001192092896}, "emissiveFactor" : [0, 0, 0], "alphaMode" : "OPAQUE", "doubleSided" : false}, {"name" : "03 - Default", "pbrMetallicRoughness" : {"baseColorFactor" : [1, 0, 0.09084179997444153, 1], "metallicFactor" : 0, "roughnessFactor" : 0.30000001192092896}, "emissiveFactor" : [0, 0, 0], "alphaMode" : "OPAQUE", "doubleSided" : false}], "meshes" : [{"primitives" : [{"attributes" : {"POSITION" : 1, "TEXCOORD_0" : 2, "NORMAL" : 3, "TANGENT" : 4}, "indices" : 0, "material" : 0, "mode" : 4}]}, {"primitives" : [{"attributes" : {"POSITION" : 6, "TEXCOORD_0" : 7, "NORMAL" : 8, "TANGENT" : 9}, "indices" : 5, "material" : 1, "mode" : 4}]}, {"primitives" : [{"attributes" : {"POSITION" : 11, "TEXCOORD_0" : 12, "NORMAL" : 13, "TANGENT" : 14}, "indices" : 10, "material" : 2, "mode" : 4}]}, {"primitives" : [{"attributes" : {"POSITION" : 16, "TEXCOORD_0" : 17, "NORMAL" : 18, "TANGENT" : 19}, "indices" : 15, "material" : 3, "mode" : 4}]}], "nodes" : [{"matrix" : [1, 0, 0, 0, 0, -4.371138828673793E-08, -1, 0, 0, 1, -4.371138828673793E-08, 0, 5.177335424377816E-06, 0, -0.6263594627380371, 1], "mesh" : 0, "name" : "Cylinder001"}, {"matrix" : [1, 0, 0, 0, 0, -4.371138828673793E-08, -1, 0, 0, 1, -4.371138828673793E-08, 0, 0, 11.755569458007812, -6.40450382232666, 1], "mesh" : 1, "name" : "Cylinder002"}, {"matrix" : [1, 0, 0, 0, 0, -4.371138828673793E-08, -1, 0, 0, 1, -4.371138828673793E-08, 0, -5.250622272491455, 11.755569458007812, -0.4286101460456848, 1], "mesh" : 2, "name" : "Object001"}, {"matrix" : [1, 0, 0, 0, 0, -4.371138828673793E-08, -1, 0, 0, 1, -4.371138828673793E-08, 0, 0.1520094871520996, 11.755569458007812, 1.6944749355316162, 1], "mesh" : 3, "name" : "Object002"}], "scene" : 0, "scenes" : [{"nodes" : [0, 1, 2, 3]}]}